<ttFont>
<head>
    <!-- Most of this table will be recalculated by the compiler -->
    <tableVersion value="1.0"/>
    <fontRevision value="1.0"/>
    <checkSumAdjustment value="0xdd174528"/>
    <magicNumber value="0x5f0f3cf5"/>
    <flags value="00000000 00011111"/>
    <unitsPerEm value="1000"/>
    <created value="Tue Jan 17 04:00:36 2017"/>
    <modified value="Tue Jan 17 04:00:36 2017"/>
    <xMin value="-1903"/>
    <yMin value="-1250"/>
    <xMax value="1902"/>
    <yMax value="1750"/>
    <macStyle value="00000000 00000000"/>
    <lowestRecPPEM value="8"/>
    <fontDirectionHint value="2"/>
    <indexToLocFormat value="0"/>
    <glyphDataFormat value="0"/>
  </head>
    <TTGlyph name=".notdef" xMin="50" yMin="0" xMax="200" yMax="533">
      <contour>
        <pt x="50" y="0" on="1"/>
        <pt x="50" y="533" on="1"/>
        <pt x="200" y="533" on="1"/>
        <pt x="200" y="0" on="1"/>
      </contour>
      <contour>
        <pt x="100" y="50" on="1"/>
        <pt x="150" y="50" on="1"/>
        <pt x="150" y="483" on="1"/>
        <pt x="100" y="483" on="1"/>
      </contour>
    </TTGlyph>
    <TTGlyph name="backslash" xMin="56" yMin="-1249" xMax="1221" yMax="1750">
      <contour>
        <pt x="56" y="1720" on="1"/>
        <pt x="56" y="1732" on="0"/>
        <pt x="73" y="1750" on="0"/>
        <pt x="85" y="1750" on="1"/>
        <pt x="104" y="1750" on="0"/>
        <pt x="111" y="1738" on="1"/>
        <pt x="113" y="1734" on="0"/>
        <pt x="1219" y="-1207" on="0"/>
        <pt x="1220" y="-1214" on="1"/>
        <pt x="1220" y="-1215" on="0"/>
        <pt x="1221" y="-1219" on="0"/>
        <pt x="1221" y="-1220" on="1"/>
        <pt x="1221" y="-1231" on="0"/>
        <pt x="1203" y="-1249" on="0"/>
        <pt x="1191" y="-1249" on="1"/>
        <pt x="1175" y="-1249" on="0"/>
        <pt x="1166" y="-1237" on="1"/>
        <pt x="1164" y="-1233" on="0"/>
        <pt x="58" y="1708" on="0"/>
        <pt x="57" y="1715" on="1"/>
        <pt x="57" y="1716" on="0"/>
        <pt x="56" y="1718" on="1"/>
      </contour>
    </TTGlyph>
    <TTGlyph name="braceleft" xMin="144" yMin="-1249" xMax="661" yMax="1750">
      <contour>
        <pt x="661" y="-1243" on="1"/>
        <pt x="655" y="-1249" on="1"/>
        <pt x="622" y="-1249" on="1"/>
        <pt x="604" y="-1240" on="1"/>
        <pt x="480" y="-1179" on="0"/>
        <pt x="410" y="-1075" on="1"/>
        <pt x="361" y="-1001" on="0"/>
        <pt x="348" y="-909" on="1"/>
        <pt x="346" y="-897" on="0"/>
        <pt x="346" y="-499" on="1"/>
        <pt x="345" y="-98" on="1"/>
        <pt x="343" y="-82" on="1"/>
        <pt x="340" y="-52" on="0"/>
        <pt x="332" y="-24" on="1"/>
        <pt x="313" y="53" on="0"/>
        <pt x="222" y="181" on="0"/>
        <pt x="157" y="223" on="1"/>
        <pt x="155" y="225" on="0"/>
        <pt x="149" y="229" on="0"/>
        <pt x="148" y="231" on="0"/>
        <pt x="145" y="234" on="0"/>
        <pt x="144" y="239" on="0"/>
        <pt x="144" y="245" on="0"/>
        <pt x="144" y="250" on="1"/>
        <pt x="144" y="254" on="0"/>
        <pt x="144" y="259" on="0"/>
        <pt x="144" y="264" on="0"/>
        <pt x="146" y="267" on="0"/>
        <pt x="146" y="269" on="0"/>
        <pt x="149" y="271" on="0"/>
        <pt x="151" y="273" on="0"/>
        <pt x="155" y="277" on="0"/>
        <pt x="157" y="278" on="1"/>
        <pt x="222" y="320" on="0"/>
        <pt x="313" y="448" on="0"/>
        <pt x="332" y="525" on="1"/>
        <pt x="340" y="553" on="0"/>
        <pt x="343" y="583" on="1"/>
        <pt x="345" y="600" on="1"/>
        <pt x="346" y="1001" on="1"/>
        <pt x="346" y="1398" on="0"/>
        <pt x="348" y="1410" on="1"/>
        <pt x="355" y="1459" on="0"/>
        <pt x="371" y="1500" on="1"/>
        <pt x="413" y="1610" on="0"/>
        <pt x="520" y="1689" on="1"/>
        <pt x="553" y="1714" on="0"/>
        <pt x="600" y="1739" on="1"/>
        <pt x="622" y="1750" on="1"/>
        <pt x="655" y="1750" on="1"/>
        <pt x="661" y="1744" on="1"/>
        <pt x="661" y="1727" on="1"/>
        <pt x="661" y="1715" on="1"/>
        <pt x="661" y="1706" on="0"/>
        <pt x="651" y="1702" on="1"/>
        <pt x="602" y="1675" on="0"/>
        <pt x="519" y="1585" on="0"/>
        <pt x="495" y="1533" on="1"/>
        <pt x="465" y="1470" on="0"/>
        <pt x="459" y="1398" on="1"/>
        <pt x="458" y="1389" on="0"/>
        <pt x="458" y="1001" on="1"/>
        <pt x="458" y="614" on="0"/>
        <pt x="457" y="605" on="1"/>
        <pt x="446" y="477" on="0"/>
        <pt x="356" y="370" on="1"/>
        <pt x="281" y="290" on="0"/>
        <pt x="202" y="251" on="1"/>
        <pt x="261" y="215" on="0"/>
        <pt x="301" y="185" on="1"/>
        <pt x="325" y="165" on="0"/>
        <pt x="356" y="131" on="1"/>
        <pt x="446" y="24" on="0"/>
        <pt x="457" y="-104" on="1"/>
        <pt x="458" y="-113" on="0"/>
        <pt x="458" y="-501" on="1"/>
        <pt x="458" y="-888" on="0"/>
        <pt x="459" y="-897" on="1"/>
        <pt x="469" y="-1017" on="0"/>
        <pt x="543" y="-1108" on="1"/>
        <pt x="569" y="-1141" on="0"/>
        <pt x="602" y="-1167" on="1"/>
        <pt x="625" y="-1187" on="0"/>
        <pt x="651" y="-1201" on="1"/>
        <pt x="661" y="-1205" on="0"/>
        <pt x="661" y="-1214" on="1"/>
        <pt x="661" y="-1226" on="1"/>
      </contour>
    </TTGlyph>
    <TTGlyph name="braceright" xMin="144" yMin="-1249" xMax="661" yMax="1750">
      <contour>
        <pt x="144" y="1727" on="1"/>
        <pt x="144" y="1743" on="0"/>
        <pt x="147" y="1750" on="0"/>
        <pt x="156" y="1750" on="1"/>
        <pt x="167" y="1750" on="1"/>
        <pt x="183" y="1750" on="1"/>
        <pt x="203" y="1740" on="1"/>
        <pt x="247" y="1718" on="0"/>
        <pt x="285" y="1689" on="1"/>
        <pt x="414" y="1593" on="0"/>
        <pt x="447" y="1456" on="1"/>
        <pt x="453" y="1436" on="0"/>
        <pt x="456" y="1410" on="1"/>
        <pt x="458" y="1398" on="0"/>
        <pt x="458" y="1001" on="1"/>
        <pt x="459" y="661" on="0"/>
        <pt x="460" y="587" on="0"/>
        <pt x="465" y="558" on="1"/>
        <pt x="479" y="471" on="0"/>
        <pt x="577" y="322" on="0"/>
        <pt x="649" y="277" on="1"/>
        <pt x="651" y="275" on="0"/>
        <pt x="658" y="270" on="0"/>
        <pt x="659" y="270" on="0"/>
        <pt x="661" y="263" on="0"/>
        <pt x="661" y="258" on="0"/>
        <pt x="661" y="242" on="0"/>
        <pt x="661" y="237" on="0"/>
        <pt x="659" y="231" on="0"/>
        <pt x="658" y="231" on="0"/>
        <pt x="652" y="226" on="0"/>
        <pt x="649" y="224" on="1"/>
        <pt x="577" y="179" on="0"/>
        <pt x="479" y="30" on="0"/>
        <pt x="465" y="-57" on="1"/>
        <pt x="460" y="-86" on="0"/>
        <pt x="459" y="-160" on="0"/>
        <pt x="458" y="-499" on="1"/>
        <pt x="458" y="-897" on="0"/>
        <pt x="456" y="-909" on="1"/>
        <pt x="453" y="-935" on="0"/>
        <pt x="447" y="-955" on="1"/>
        <pt x="422" y="-1062" on="0"/>
        <pt x="333" y="-1147" on="1"/>
        <pt x="278" y="-1201" on="0"/>
        <pt x="203" y="-1239" on="1"/>
        <pt x="183" y="-1249" on="1"/>
        <pt x="168" y="-1249" on="1"/>
        <pt x="150" y="-1249" on="0"/>
        <pt x="144" y="-1243" on="0"/>
        <pt x="144" y="-1226" on="1"/>
        <pt x="144" y="-1213" on="0"/>
        <pt x="147" y="-1206" on="0"/>
        <pt x="153" y="-1202" on="1"/>
        <pt x="204" y="-1173" on="0"/>
        <pt x="243" y="-1129" on="1"/>
        <pt x="334" y="-1030" on="0"/>
        <pt x="345" y="-897" on="1"/>
        <pt x="346" y="-888" on="0"/>
        <pt x="346" y="-501" on="1"/>
        <pt x="346" y="-113" on="0"/>
        <pt x="347" y="-104" on="1"/>
        <pt x="356" y="19" on="0"/>
        <pt x="443" y="124" on="1"/>
        <pt x="464" y="150" on="0"/>
        <pt x="503" y="184" on="1"/>
        <pt x="556" y="227" on="0"/>
        <pt x="603" y="250" on="1"/>
        <pt x="554" y="274" on="0"/>
        <pt x="503" y="317" on="1"/>
        <pt x="464" y="351" on="0"/>
        <pt x="443" y="377" on="1"/>
        <pt x="356" y="482" on="0"/>
        <pt x="347" y="605" on="1"/>
        <pt x="346" y="614" on="0"/>
        <pt x="346" y="1002" on="1"/>
        <pt x="346" y="1389" on="0"/>
        <pt x="345" y="1398" on="1"/>
        <pt x="338" y="1497" on="0"/>
        <pt x="232" y="1656" on="0"/>
        <pt x="153" y="1703" on="1"/>
        <pt x="146" y="1707" on="0"/>
        <pt x="144" y="1713" on="0"/>
      </contour>
    </TTGlyph>
    <TTGlyph name="bracketleft" xMin="269" yMin="-1249" xMax="577" yMax="1750">
      <contour>
        <pt x="269" y="-1249" on="1"/>
        <pt x="269" y="1750" on="1"/>
        <pt x="577" y="1750" on="1"/>
        <pt x="577" y="1677" on="1"/>
        <pt x="342" y="1677" on="1"/>
        <pt x="342" y="-1176" on="1"/>
        <pt x="577" y="-1176" on="1"/>
        <pt x="577" y="-1249" on="1"/>
      </contour>
    </TTGlyph>
    <TTGlyph name="bracketright" xMin="5" yMin="-1249" xMax="313" yMax="1750">
      <contour>
        <pt x="5" y="1677" on="1"/>
        <pt x="5" y="1750" on="1"/>
        <pt x="313" y="1750" on="1"/>
        <pt x="313" y="-1249" on="1"/>
        <pt x="5" y="-1249" on="1"/>
        <pt x="5" y="-1176" on="1"/>
        <pt x="240" y="-1176" on="1"/>
        <pt x="240" y="1677" on="1"/>
      </contour>
    </TTGlyph>
    <TTGlyph name="circumflex" xMin="-14" yMin="561" xMax="1902" yMax="845">
      <contour>
        <pt x="463" y="737" on="1"/>
        <pt x="931" y="845" on="0"/>
        <pt x="943" y="845" on="1"/>
        <pt x="945" y="845" on="0"/>
        <pt x="1889" y="631" on="0"/>
        <pt x="1896" y="628" on="1"/>
        <pt x="1902" y="628" on="0"/>
        <pt x="1902" y="618" on="1"/>
        <pt x="1902" y="616" on="0"/>
        <pt x="1898" y="594" on="1"/>
        <pt x="1892" y="561" on="0"/>
        <pt x="1883" y="561" on="1"/>
        <pt x="1881" y="561" on="0"/>
        <pt x="1412" y="654" on="1"/>
        <pt x="945" y="750" on="1"/>
        <pt x="476" y="654" on="1"/>
        <pt x="6" y="561" on="0"/>
        <pt x="5" y="561" on="1"/>
        <pt x="-4" y="561" on="0"/>
        <pt x="-11" y="592" on="1"/>
        <pt x="-14" y="612" on="0"/>
        <pt x="-14" y="618" on="1"/>
        <pt x="-14" y="623" on="0"/>
        <pt x="-13" y="625" on="1"/>
        <pt x="-12" y="626" on="0"/>
      </contour>
    </TTGlyph>
    <TTGlyph name="parenleft" xMin="237" yMin="-1249" xMax="758" yMax="1750">
      <contour>
        <pt x="758" y="-1237" on="0"/>
        <pt x="758" y="-1243" on="0"/>
        <pt x="752" y="-1249" on="1"/>
        <pt x="736" y="-1249" on="1"/>
        <pt x="718" y="-1249" on="0"/>
        <pt x="717" y="-1248" on="1"/>
        <pt x="711" y="-1245" on="0"/>
        <pt x="672" y="-1199" on="1"/>
        <pt x="237" y="-706" on="0"/>
        <pt x="237" y="251" on="1"/>
        <pt x="237" y="1206" on="0"/>
        <pt x="672" y="1700" on="1"/>
        <pt x="697" y="1730" on="0"/>
        <pt x="716" y="1749" on="1"/>
        <pt x="718" y="1750" on="0"/>
        <pt x="735" y="1750" on="1"/>
        <pt x="752" y="1750" on="1"/>
        <pt x="758" y="1744" on="0"/>
        <pt x="758" y="1738" on="0"/>
        <pt x="744" y="1719" on="1"/>
        <pt x="560" y="1489" on="0"/>
        <pt x="463" y="1176" on="1"/>
        <pt x="348" y="802" on="0"/>
        <pt x="348" y="251" on="1"/>
        <pt x="348" y="-301" on="0"/>
        <pt x="463" y="-675" on="1"/>
        <pt x="560" y="-988" on="0"/>
        <pt x="744" y="-1218" on="1"/>
      </contour>
    </TTGlyph>
    <TTGlyph name="parenright" xMin="33" yMin="-1249" xMax="554" yMax="1750">
      <contour>
        <pt x="33" y="1741" on="1"/>
        <pt x="33" y="1750" on="0"/>
        <pt x="52" y="1750" on="1"/>
        <pt x="60" y="1750" on="1"/>
        <pt x="73" y="1750" on="0"/>
        <pt x="74" y="1749" on="1"/>
        <pt x="80" y="1746" on="0"/>
        <pt x="119" y="1700" on="1"/>
        <pt x="554" y="1207" on="0"/>
        <pt x="554" y="-705" on="0"/>
        <pt x="119" y="-1199" on="1"/>
        <pt x="80" y="-1245" on="0"/>
        <pt x="74" y="-1248" on="1"/>
        <pt x="68" y="-1248" on="1"/>
        <pt x="61" y="-1249" on="0"/>
        <pt x="56" y="-1249" on="1"/>
        <pt x="50" y="-1249" on="1"/>
        <pt x="33" y="-1249" on="0"/>
        <pt x="33" y="-1239" on="1"/>
        <pt x="33" y="-1236" on="0"/>
        <pt x="50" y="-1215" on="1"/>
        <pt x="218" y="-1006" on="0"/>
        <pt x="311" y="-727" on="1"/>
        <pt x="443" y="-335" on="0"/>
        <pt x="443" y="251" on="1"/>
        <pt x="443" y="836" on="0"/>
        <pt x="311" y="1228" on="1"/>
        <pt x="218" y="1507" on="0"/>
        <pt x="50" y="1716" on="1"/>
        <pt x="33" y="1737" on="0"/>
      </contour>
    </TTGlyph>
    <TTGlyph name="radical" xMin="111" yMin="-1250" xMax="1020" yMax="1750">
      <contour>
        <pt x="473" y="-963" on="1"/>
        <pt x="982" y="1736" on="0"/>
        <pt x="983" y="1739" on="1"/>
        <pt x="988" y="1750" on="0"/>
        <pt x="1001" y="1750" on="1"/>
        <pt x="1008" y="1750" on="0"/>
        <pt x="1019" y="1740" on="0"/>
        <pt x="1020" y="1733" on="1"/>
        <pt x="1020" y="1726" on="0"/>
        <pt x="463" y="-1238" on="0"/>
        <pt x="460" y="-1241" on="1"/>
        <pt x="457" y="-1250" on="0"/>
        <pt x="436" y="-1250" on="1"/>
        <pt x="424" y="-1250" on="0"/>
        <pt x="424" y="-1248" on="1"/>
        <pt x="424" y="-1246" on="0"/>
        <pt x="408" y="-1156" on="1"/>
        <pt x="332" y="-716" on="0"/>
        <pt x="201" y="44" on="1"/>
        <pt x="201" y="46" on="0"/>
        <pt x="169" y="-18" on="0"/>
        <pt x="153" y="-50" on="1"/>
        <pt x="137" y="-83" on="1"/>
        <pt x="111" y="-57" on="1"/>
        <pt x="187" y="96" on="1"/>
        <pt x="264" y="247" on="1"/>
        <pt x="265" y="246" on="0"/>
        <pt x="369" y="-357" on="1"/>
        <pt x="470" y="-958" on="0"/>
      </contour>
    </TTGlyph>
    <TTGlyph name="slash" xMin="56" yMin="-1249" xMax="1221" yMax="1750">
      <contour>
        <pt x="1166" y="1738" on="1"/>
        <pt x="1176" y="1750" on="0"/>
        <pt x="1202" y="1750" on="0"/>
        <pt x="1221" y="1733" on="0"/>
        <pt x="1221" y="1721" on="1"/>
        <pt x="1221" y="1720" on="0"/>
        <pt x="1220" y="1716" on="0"/>
        <pt x="1220" y="1715" on="1"/>
        <pt x="1219" y="1708" on="0"/>
        <pt x="113" y="-1233" on="0"/>
        <pt x="111" y="-1237" on="1"/>
        <pt x="102" y="-1249" on="0"/>
        <pt x="86" y="-1249" on="1"/>
        <pt x="74" y="-1249" on="0"/>
        <pt x="56" y="-1231" on="0"/>
        <pt x="56" y="-1220" on="1"/>
        <pt x="56" y="-1219" on="0"/>
        <pt x="57" y="-1215" on="0"/>
        <pt x="57" y="-1214" on="1"/>
        <pt x="58" y="-1207" on="0"/>
        <pt x="1164" y="1734" on="0"/>
      </contour>
    </TTGlyph>
    <TTGlyph name="tilde" xMin="2" yMin="583" xMax="1885" yMax="823">
      <contour>
        <pt x="607" y="821" on="1"/>
        <pt x="643" y="823" on="0"/>
        <pt x="666" y="823" on="1"/>
        <pt x="738" y="823" on="0"/>
        <pt x="784" y="814" on="1"/>
        <pt x="858" y="802" on="0"/>
        <pt x="964" y="759" on="1"/>
        <pt x="1092" y="708" on="0"/>
        <pt x="1173" y="699" on="1"/>
        <pt x="1211" y="695" on="0"/>
        <pt x="1252" y="695" on="1"/>
        <pt x="1290" y="695" on="0"/>
        <pt x="1338" y="699" on="1"/>
        <pt x="1523" y="718" on="0"/>
        <pt x="1802" y="803" on="1"/>
        <pt x="1867" y="823" on="0"/>
        <pt x="1871" y="823" on="1"/>
        <pt x="1872" y="822" on="0"/>
        <pt x="1877" y="815" on="0"/>
        <pt x="1878" y="814" on="1"/>
        <pt x="1885" y="783" on="0"/>
        <pt x="1885" y="753" on="1"/>
        <pt x="1885" y="748" on="0"/>
        <pt x="1884" y="747" on="1"/>
        <pt x="1884" y="738" on="0"/>
        <pt x="1849" y="719" on="1"/>
        <pt x="1833" y="710" on="0"/>
        <pt x="1650" y="656" on="0"/>
        <pt x="1580" y="639" on="1"/>
        <pt x="1361" y="583" on="0"/>
        <pt x="1212" y="583" on="1"/>
        <pt x="1152" y="583" on="0"/>
        <pt x="1102" y="592" on="1"/>
        <pt x="1028" y="604" on="0"/>
        <pt x="924" y="647" on="1"/>
        <pt x="849" y="676" on="0"/>
        <pt x="763" y="701" on="0"/>
        <pt x="713" y="707" on="1"/>
        <pt x="677" y="711" on="0"/>
        <pt x="635" y="711" on="1"/>
        <pt x="595" y="711" on="0"/>
        <pt x="551" y="707" on="1"/>
        <pt x="366" y="688" on="0"/>
        <pt x="84" y="603" on="1"/>
        <pt x="20" y="583" on="0"/>
        <pt x="16" y="583" on="1"/>
        <pt x="14" y="584" on="0"/>
        <pt x="10" y="591" on="0"/>
        <pt x="9" y="592" on="1"/>
        <pt x="-2" y="650" on="0"/>
        <pt x="2" y="659" on="1"/>
        <pt x="2" y="669" on="0"/>
        <pt x="38" y="687" on="1"/>
        <pt x="54" y="696" on="0"/>
        <pt x="239" y="750" on="0"/>
        <pt x="309" y="767" on="1"/>
        <pt x="464" y="809" on="0"/>
      </contour>
    </TTGlyph>
    <TTGlyph name="tildecomb" xMin="-1887" yMin="583" xMax="-4" yMax="823">
      <contour>
        <pt x="-1282" y="821" on="1"/>
        <pt x="-1246" y="823" on="0"/>
        <pt x="-1223" y="823" on="1"/>
        <pt x="-1152" y="823" on="0"/>
        <pt x="-1105" y="814" on="1"/>
        <pt x="-1031" y="802" on="0"/>
        <pt x="-925" y="759" on="1"/>
        <pt x="-797" y="708" on="0"/>
        <pt x="-716" y="699" on="1"/>
        <pt x="-678" y="695" on="0"/>
        <pt x="-637" y="695" on="1"/>
        <pt x="-599" y="695" on="0"/>
        <pt x="-551" y="699" on="1"/>
        <pt x="-366" y="718" on="0"/>
        <pt x="-87" y="803" on="1"/>
        <pt x="-22" y="823" on="0"/>
        <pt x="-18" y="823" on="1"/>
        <pt x="-17" y="822" on="0"/>
        <pt x="-12" y="815" on="0"/>
        <pt x="-11" y="814" on="1"/>
        <pt x="-4" y="782" on="0"/>
        <pt x="-4" y="753" on="1"/>
        <pt x="-4" y="748" on="0"/>
        <pt x="-5" y="747" on="1"/>
        <pt x="-5" y="738" on="0"/>
        <pt x="-40" y="719" on="1"/>
        <pt x="-56" y="710" on="0"/>
        <pt x="-239" y="656" on="0"/>
        <pt x="-309" y="639" on="1"/>
        <pt x="-528" y="583" on="0"/>
        <pt x="-677" y="583" on="1"/>
        <pt x="-738" y="583" on="0"/>
        <pt x="-787" y="592" on="1"/>
        <pt x="-861" y="604" on="0"/>
        <pt x="-965" y="647" on="1"/>
        <pt x="-1040" y="676" on="0"/>
        <pt x="-1126" y="701" on="0"/>
        <pt x="-1176" y="707" on="1"/>
        <pt x="-1212" y="711" on="0"/>
        <pt x="-1254" y="711" on="1"/>
        <pt x="-1294" y="711" on="0"/>
        <pt x="-1338" y="707" on="1"/>
        <pt x="-1523" y="688" on="0"/>
        <pt x="-1805" y="603" on="1"/>
        <pt x="-1869" y="583" on="0"/>
        <pt x="-1873" y="583" on="1"/>
        <pt x="-1875" y="584" on="0"/>
        <pt x="-1879" y="591" on="0"/>
        <pt x="-1880" y="592" on="1"/>
        <pt x="-1891" y="650" on="0"/>
        <pt x="-1887" y="659" on="1"/>
        <pt x="-1887" y="669" on="0"/>
        <pt x="-1851" y="687" on="1"/>
        <pt x="-1835" y="696" on="0"/>
        <pt x="-1650" y="750" on="0"/>
        <pt x="-1580" y="767" on="1"/>
        <pt x="-1425" y="809" on="0"/>
      </contour>
    </TTGlyph>
    <TTGlyph name="uni0302" xMin="-1903" yMin="561" xMax="13" yMax="845">
      <contour>
        <pt x="-1426" y="737" on="1"/>
        <pt x="-958" y="845" on="0"/>
        <pt x="-946" y="845" on="1"/>
        <pt x="-944" y="845" on="0"/>
        <pt x="0" y="631" on="0"/>
        <pt x="7" y="628" on="1"/>
        <pt x="13" y="628" on="0"/>
        <pt x="13" y="618" on="1"/>
        <pt x="13" y="616" on="0"/>
        <pt x="9" y="594" on="1"/>
        <pt x="4" y="561" on="0"/>
        <pt x="-6" y="561" on="1"/>
        <pt x="-8" y="561" on="0"/>
        <pt x="-477" y="654" on="1"/>
        <pt x="-944" y="750" on="1"/>
        <pt x="-1413" y="654" on="1"/>
        <pt x="-1883" y="561" on="0"/>
        <pt x="-1884" y="561" on="1"/>
        <pt x="-1893" y="561" on="0"/>
        <pt x="-1900" y="592" on="1"/>
        <pt x="-1903" y="611" on="0"/>
        <pt x="-1903" y="618" on="1"/>
        <pt x="-1903" y="623" on="0"/>
        <pt x="-1902" y="625" on="1"/>
        <pt x="-1901" y="626" on="0"/>
      </contour>
    </TTGlyph>
    <TTGlyph name="uni2308" xMin="269" yMin="-1249" xMax="633" yMax="1750">
      <contour>
        <pt x="269" y="-1249" on="1"/>
        <pt x="269" y="1750" on="1"/>
        <pt x="633" y="1750" on="1"/>
        <pt x="633" y="1677" on="1"/>
        <pt x="342" y="1677" on="1"/>
        <pt x="342" y="-1249" on="1"/>
      </contour>
    </TTGlyph>
    <TTGlyph name="uni2309" xMin="5" yMin="-1249" xMax="369" yMax="1750">
      <contour>
        <pt x="5" y="1677" on="1"/>
        <pt x="5" y="1750" on="1"/>
        <pt x="369" y="1750" on="1"/>
        <pt x="369" y="-1249" on="1"/>
        <pt x="296" y="-1249" on="1"/>
        <pt x="296" y="1677" on="1"/>
      </contour>
    </TTGlyph>
    <TTGlyph name="uni230A" xMin="269" yMin="-1249" xMax="633" yMax="1750">
      <contour>
        <pt x="269" y="-1249" on="1"/>
        <pt x="269" y="1750" on="1"/>
        <pt x="342" y="1750" on="1"/>
        <pt x="342" y="-1176" on="1"/>
        <pt x="633" y="-1176" on="1"/>
        <pt x="633" y="-1249" on="1"/>
      </contour>
    </TTGlyph>
    <TTGlyph name="uni230B" xMin="5" yMin="-1249" xMax="369" yMax="1750">
      <contour>
        <pt x="296" y="-1176" on="1"/>
        <pt x="296" y="1750" on="1"/>
        <pt x="369" y="1750" on="1"/>
        <pt x="369" y="-1249" on="1"/>
        <pt x="5" y="-1249" on="1"/>
        <pt x="5" y="-1176" on="1"/>
      </contour>
    </TTGlyph>
    <TTGlyph name="uni239B" xMin="291" yMin="-655" xMax="843" yMax="1154">
      <contour>
        <pt x="837" y="1154" on="1"/>
        <pt x="843" y="1148" on="0"/>
        <pt x="843" y="1145" on="1"/>
        <pt x="843" y="1141" on="0"/>
        <pt x="833" y="1127" on="1"/>
        <pt x="630" y="838" on="0"/>
        <pt x="435" y="86" on="0"/>
        <pt x="420" y="-420" on="1"/>
        <pt x="417" y="-576" on="0"/>
        <pt x="417" y="-609" on="1"/>
        <pt x="417" y="-641" on="0"/>
        <pt x="415" y="-653" on="0"/>
        <pt x="411" y="-654" on="1"/>
        <pt x="409" y="-655" on="0"/>
        <pt x="366" y="-655" on="1"/>
        <pt x="299" y="-655" on="0"/>
        <pt x="297" y="-654" on="1"/>
        <pt x="292" y="-652" on="0"/>
        <pt x="291" y="-634" on="0"/>
        <pt x="291" y="-583" on="1"/>
        <pt x="294" y="-344" on="0"/>
        <pt x="315" y="-129" on="1"/>
        <pt x="395" y="663" on="0"/>
        <pt x="785" y="1136" on="1"/>
        <pt x="792" y="1145" on="0"/>
        <pt x="800" y="1153" on="1"/>
        <pt x="801" y="1154" on="0"/>
        <pt x="819" y="1154" on="1"/>
      </contour>
    </TTGlyph>
    <TTGlyph name="uni239C" xMin="291" yMin="-10" xMax="417" yMax="610">
      <contour>
        <pt x="413" y="-9" on="1"/>
        <pt x="412" y="-9" on="0"/>
        <pt x="394" y="-10" on="0"/>
        <pt x="367" y="-10" on="0"/>
        <pt x="354" y="-10" on="1"/>
        <pt x="300" y="-10" on="0"/>
        <pt x="297" y="-9" on="1"/>
        <pt x="294" y="-8" on="0"/>
        <pt x="293" y="-5" on="1"/>
        <pt x="291" y="5" on="0"/>
        <pt x="291" y="127" on="1"/>
        <pt x="291" y="300" on="1"/>
        <pt x="291" y="602" on="0"/>
        <pt x="292" y="605" on="1"/>
        <pt x="296" y="609" on="1"/>
        <pt x="298" y="610" on="0"/>
        <pt x="366" y="610" on="1"/>
        <pt x="377" y="610" on="0"/>
        <pt x="398" y="610" on="0"/>
        <pt x="411" y="609" on="0"/>
        <pt x="412" y="609" on="1"/>
        <pt x="416" y="609" on="0"/>
        <pt x="417" y="575" on="0"/>
        <pt x="417" y="473" on="1"/>
        <pt x="417" y="127" on="1"/>
        <pt x="417" y="-9" on="0"/>
      </contour>
    </TTGlyph>
    <TTGlyph name="uni239D" xMin="291" yMin="-644" xMax="843" yMax="1165">
      <contour>
        <pt x="843" y="-635" on="1"/>
        <pt x="843" y="-638" on="0"/>
        <pt x="837" y="-644" on="1"/>
        <pt x="820" y="-644" on="1"/>
        <pt x="801" y="-644" on="0"/>
        <pt x="800" y="-643" on="1"/>
        <pt x="792" y="-635" on="0"/>
        <pt x="785" y="-626" on="1"/>
        <pt x="421" y="-184" on="0"/>
        <pt x="327" y="536" on="1"/>
        <pt x="295" y="781" on="0"/>
        <pt x="291" y="1093" on="1"/>
        <pt x="291" y="1144" on="0"/>
        <pt x="292" y="1162" on="0"/>
        <pt x="296" y="1164" on="1"/>
        <pt x="298" y="1165" on="0"/>
        <pt x="366" y="1165" on="1"/>
        <pt x="409" y="1165" on="0"/>
        <pt x="411" y="1164" on="1"/>
        <pt x="415" y="1163" on="0"/>
        <pt x="417" y="1151" on="0"/>
        <pt x="417" y="1119" on="1"/>
        <pt x="417" y="875" on="0"/>
        <pt x="434" y="665" on="1"/>
        <pt x="465" y="257" on="0"/>
        <pt x="661" y="-373" on="0"/>
        <pt x="833" y="-617" on="1"/>
        <pt x="843" y="-631" on="0"/>
      </contour>
    </TTGlyph>
    <TTGlyph name="uni239E" xMin="31" yMin="-655" xMax="583" yMax="1154">
      <contour>
        <pt x="31" y="1143" on="1"/>
        <pt x="31" y="1154" on="0"/>
        <pt x="48" y="1154" on="1"/>
        <pt x="59" y="1154" on="1"/>
        <pt x="73" y="1154" on="0"/>
        <pt x="74" y="1153" on="1"/>
        <pt x="82" y="1145" on="0"/>
        <pt x="89" y="1136" on="1"/>
        <pt x="453" y="694" on="0"/>
        <pt x="547" y="-25" on="1"/>
        <pt x="579" y="-272" on="0"/>
        <pt x="583" y="-583" on="1"/>
        <pt x="583" y="-634" on="0"/>
        <pt x="582" y="-652" on="0"/>
        <pt x="577" y="-654" on="1"/>
        <pt x="575" y="-655" on="0"/>
        <pt x="508" y="-655" on="1"/>
        <pt x="465" y="-655" on="0"/>
        <pt x="463" y="-654" on="1"/>
        <pt x="459" y="-653" on="0"/>
        <pt x="457" y="-641" on="0"/>
        <pt x="457" y="-609" on="1"/>
        <pt x="457" y="-366" on="0"/>
        <pt x="440" y="-154" on="1"/>
        <pt x="412" y="218" on="0"/>
        <pt x="245" y="802" on="0"/>
        <pt x="100" y="1037" on="1"/>
        <pt x="69" y="1089" on="0"/>
        <pt x="37" y="1132" on="1"/>
        <pt x="34" y="1137" on="0"/>
      </contour>
    </TTGlyph>
    <TTGlyph name="uni239F" xMin="457" yMin="-10" xMax="583" yMax="610">
      <contour>
        <pt x="579" y="-9" on="1"/>
        <pt x="578" y="-9" on="0"/>
        <pt x="560" y="-10" on="0"/>
        <pt x="533" y="-10" on="0"/>
        <pt x="520" y="-10" on="1"/>
        <pt x="466" y="-10" on="0"/>
        <pt x="463" y="-9" on="1"/>
        <pt x="460" y="-8" on="0"/>
        <pt x="459" y="-5" on="1"/>
        <pt x="457" y="5" on="0"/>
        <pt x="457" y="127" on="1"/>
        <pt x="457" y="300" on="1"/>
        <pt x="457" y="602" on="0"/>
        <pt x="458" y="605" on="1"/>
        <pt x="462" y="609" on="1"/>
        <pt x="464" y="610" on="0"/>
        <pt x="532" y="610" on="1"/>
        <pt x="543" y="610" on="0"/>
        <pt x="564" y="610" on="0"/>
        <pt x="577" y="609" on="0"/>
        <pt x="578" y="609" on="1"/>
        <pt x="582" y="609" on="0"/>
        <pt x="583" y="575" on="0"/>
        <pt x="583" y="473" on="1"/>
        <pt x="583" y="127" on="1"/>
        <pt x="583" y="-9" on="0"/>
      </contour>
    </TTGlyph>
    <TTGlyph name="uni23A0" xMin="31" yMin="-644" xMax="583" yMax="1165">
      <contour>
        <pt x="56" y="-644" on="1"/>
        <pt x="31" y="-644" on="0"/>
        <pt x="31" y="-635" on="1"/>
        <pt x="31" y="-632" on="0"/>
        <pt x="37" y="-622" on="1"/>
        <pt x="69" y="-579" on="0"/>
        <pt x="100" y="-527" on="1"/>
        <pt x="245" y="-292" on="0"/>
        <pt x="412" y="293" on="0"/>
        <pt x="440" y="665" on="1"/>
        <pt x="457" y="874" on="0"/>
        <pt x="457" y="1119" on="1"/>
        <pt x="457" y="1161" on="0"/>
        <pt x="462" y="1164" on="1"/>
        <pt x="464" y="1165" on="0"/>
        <pt x="520" y="1165" on="1"/>
        <pt x="575" y="1165" on="0"/>
        <pt x="577" y="1164" on="1"/>
        <pt x="582" y="1162" on="0"/>
        <pt x="583" y="1144" on="0"/>
        <pt x="583" y="1093" on="1"/>
        <pt x="580" y="854" on="0"/>
        <pt x="559" y="639" on="1"/>
        <pt x="479" y="-153" on="0"/>
        <pt x="89" y="-626" on="1"/>
        <pt x="82" y="-635" on="0"/>
        <pt x="74" y="-643" on="1"/>
        <pt x="73" y="-644" on="0"/>
      </contour>
    </TTGlyph>
    <TTGlyph name="uni23A1" xMin="319" yMin="-645" xMax="666" yMax="1154">
      <contour>
        <pt x="319" y="-645" on="1"/>
        <pt x="319" y="1154" on="1"/>
        <pt x="666" y="1154" on="1"/>
        <pt x="666" y="1070" on="1"/>
        <pt x="403" y="1070" on="1"/>
        <pt x="403" y="-645" on="1"/>
      </contour>
    </TTGlyph>
    <TTGlyph name="uni23A2" xMin="319" yMin="0" xMax="403" yMax="602">
      <contour>
        <pt x="319" y="0" on="1"/>
        <pt x="319" y="602" on="1"/>
        <pt x="403" y="602" on="1"/>
        <pt x="403" y="0" on="1"/>
      </contour>
    </TTGlyph>
    <TTGlyph name="uni23A3" xMin="319" yMin="-644" xMax="666" yMax="1155">
      <contour>
        <pt x="319" y="-644" on="1"/>
        <pt x="319" y="1155" on="1"/>
        <pt x="403" y="1155" on="1"/>
        <pt x="403" y="-560" on="1"/>
        <pt x="666" y="-560" on="1"/>
        <pt x="666" y="-644" on="1"/>
      </contour>
    </TTGlyph>
    <TTGlyph name="uni23A4" xMin="0" yMin="-645" xMax="347" yMax="1154">
      <contour>
        <pt x="0" y="1070" on="1"/>
        <pt x="0" y="1154" on="1"/>
        <pt x="347" y="1154" on="1"/>
        <pt x="347" y="-645" on="1"/>
        <pt x="263" y="-645" on="1"/>
        <pt x="263" y="1070" on="1"/>
      </contour>
    </TTGlyph>
    <TTGlyph name="uni23A5" xMin="263" yMin="0" xMax="347" yMax="602">
      <contour>
        <pt x="263" y="0" on="1"/>
        <pt x="263" y="602" on="1"/>
        <pt x="347" y="602" on="1"/>
        <pt x="347" y="0" on="1"/>
      </contour>
    </TTGlyph>
    <TTGlyph name="uni23A6" xMin="0" yMin="-644" xMax="347" yMax="1155">
      <contour>
        <pt x="263" y="-560" on="1"/>
        <pt x="263" y="1155" on="1"/>
        <pt x="347" y="1155" on="1"/>
        <pt x="347" y="-644" on="1"/>
        <pt x="0" y="-644" on="1"/>
        <pt x="0" y="-560" on="1"/>
      </contour>
    </TTGlyph>
    <TTGlyph name="uni23A7" xMin="384" yMin="-10" xMax="718" yMax="899">
      <contour>
        <pt x="712" y="899" on="1"/>
        <pt x="718" y="893" on="1"/>
        <pt x="718" y="876" on="1"/>
        <pt x="718" y="857" on="0"/>
        <pt x="717" y="856" on="1"/>
        <pt x="711" y="850" on="0"/>
        <pt x="704" y="846" on="1"/>
        <pt x="627" y="793" on="0"/>
        <pt x="526" y="626" on="0"/>
        <pt x="510" y="525" on="1"/>
        <pt x="510" y="524" on="0"/>
        <pt x="509" y="521" on="1"/>
        <pt x="505" y="493" on="0"/>
        <pt x="504" y="349" on="1"/>
        <pt x="504" y="345" on="0"/>
        <pt x="504" y="334" on="1"/>
        <pt x="504" y="277" on="0"/>
        <pt x="504" y="240" on="1"/>
        <pt x="504" y="-2" on="0"/>
        <pt x="503" y="-4" on="1"/>
        <pt x="502" y="-8" on="0"/>
        <pt x="486" y="-10" on="0"/>
        <pt x="444" y="-10" on="1"/>
        <pt x="392" y="-10" on="0"/>
        <pt x="390" y="-9" on="1"/>
        <pt x="387" y="-8" on="0"/>
        <pt x="386" y="-5" on="1"/>
        <pt x="384" y="5" on="0"/>
        <pt x="384" y="230" on="1"/>
        <pt x="384" y="467" on="0"/>
        <pt x="385" y="476" on="1"/>
        <pt x="397" y="663" on="0"/>
        <pt x="546" y="807" on="1"/>
        <pt x="596" y="854" on="0"/>
        <pt x="664" y="892" on="1"/>
        <pt x="677" y="899" on="1"/>
      </contour>
    </TTGlyph>
    <TTGlyph name="uni23A8" xMin="170" yMin="-660" xMax="504" yMax="1160">
      <contour>
        <pt x="389" y="1159" on="1"/>
        <pt x="391" y="1160" on="0"/>
        <pt x="455" y="1160" on="1"/>
        <pt x="496" y="1160" on="0"/>
        <pt x="498" y="1159" on="1"/>
        <pt x="501" y="1158" on="0"/>
        <pt x="502" y="1155" on="1"/>
        <pt x="504" y="1145" on="0"/>
        <pt x="504" y="924" on="1"/>
        <pt x="504" y="691" on="0"/>
        <pt x="503" y="682" on="1"/>
        <pt x="492" y="525" on="0"/>
        <pt x="396" y="398" on="1"/>
        <pt x="333" y="315" on="0"/>
        <pt x="243" y="259" on="1"/>
        <pt x="229" y="250" on="1"/>
        <pt x="235" y="246" on="0"/>
        <pt x="243" y="241" on="1"/>
        <pt x="373" y="161" on="0"/>
        <pt x="442" y="30" on="1"/>
        <pt x="496" y="-70" on="0"/>
        <pt x="503" y="-182" on="1"/>
        <pt x="504" y="-191" on="0"/>
        <pt x="504" y="-424" on="1"/>
        <pt x="504" y="-600" on="0"/>
        <pt x="503" y="-659" on="0"/>
        <pt x="499" y="-659" on="1"/>
        <pt x="498" y="-659" on="1"/>
        <pt x="496" y="-660" on="0"/>
        <pt x="392" y="-660" on="0"/>
        <pt x="390" y="-659" on="1"/>
        <pt x="387" y="-658" on="0"/>
        <pt x="386" y="-655" on="1"/>
        <pt x="384" y="-645" on="0"/>
        <pt x="384" y="-425" on="1"/>
        <pt x="384" y="-191" on="0"/>
        <pt x="383" y="-179" on="1"/>
        <pt x="367" y="84" on="0"/>
        <pt x="183" y="221" on="1"/>
        <pt x="171" y="230" on="0"/>
        <pt x="171" y="232" on="1"/>
        <pt x="170" y="233" on="0"/>
        <pt x="170" y="267" on="0"/>
        <pt x="171" y="268" on="1"/>
        <pt x="171" y="270" on="0"/>
        <pt x="183" y="279" on="1"/>
        <pt x="272" y="346" on="0"/>
        <pt x="376" y="552" on="0"/>
        <pt x="383" y="679" on="1"/>
        <pt x="384" y="691" on="0"/>
        <pt x="384" y="925" on="1"/>
        <pt x="384" y="1152" on="0"/>
        <pt x="385" y="1155" on="1"/>
      </contour>
    </TTGlyph>
    <TTGlyph name="uni23A9" xMin="384" yMin="-899" xMax="718" yMax="10">
      <contour>
        <pt x="718" y="-893" on="1"/>
        <pt x="712" y="-899" on="1"/>
        <pt x="677" y="-899" on="1"/>
        <pt x="666" y="-893" on="1"/>
        <pt x="510" y="-809" on="0"/>
        <pt x="434" y="-655" on="1"/>
        <pt x="391" y="-569" on="0"/>
        <pt x="385" y="-476" on="1"/>
        <pt x="384" y="-466" on="0"/>
        <pt x="384" y="-282" on="1"/>
        <pt x="384" y="3" on="0"/>
        <pt x="385" y="5" on="1"/>
        <pt x="389" y="9" on="1"/>
        <pt x="392" y="10" on="0"/>
        <pt x="444" y="10" on="1"/>
        <pt x="486" y="10" on="0"/>
        <pt x="502" y="8" on="0"/>
        <pt x="503" y="4" on="1"/>
        <pt x="504" y="2" on="0"/>
        <pt x="504" y="-239" on="1"/>
        <pt x="505" y="-484" on="0"/>
        <pt x="506" y="-496" on="1"/>
        <pt x="514" y="-561" on="0"/>
        <pt x="530" y="-609" on="1"/>
        <pt x="579" y="-760" on="0"/>
        <pt x="704" y="-846" on="1"/>
        <pt x="711" y="-850" on="0"/>
        <pt x="717" y="-856" on="1"/>
        <pt x="718" y="-857" on="0"/>
        <pt x="718" y="-876" on="1"/>
      </contour>
    </TTGlyph>
    <TTGlyph name="uni23AA" xMin="384" yMin="-10" xMax="504" yMax="310">
      <contour>
        <pt x="389" y="309" on="1"/>
        <pt x="391" y="310" on="0"/>
        <pt x="455" y="310" on="1"/>
        <pt x="496" y="310" on="0"/>
        <pt x="498" y="309" on="1"/>
        <pt x="502" y="308" on="0"/>
        <pt x="503" y="298" on="1"/>
        <pt x="504" y="283" on="0"/>
        <pt x="504" y="150" on="1"/>
        <pt x="504" y="32" on="0"/>
        <pt x="503" y="-8" on="0"/>
        <pt x="499" y="-9" on="1"/>
        <pt x="498" y="-9" on="1"/>
        <pt x="496" y="-10" on="0"/>
        <pt x="392" y="-10" on="0"/>
        <pt x="390" y="-9" on="1"/>
        <pt x="386" y="-8" on="0"/>
        <pt x="385" y="2" on="1"/>
        <pt x="384" y="17" on="0"/>
        <pt x="384" y="150" on="1"/>
        <pt x="384" y="303" on="0"/>
        <pt x="385" y="305" on="1"/>
      </contour>
    </TTGlyph>
    <TTGlyph name="uni23AB" xMin="170" yMin="-10" xMax="504" yMax="899">
      <contour>
        <pt x="175" y="898" on="1"/>
        <pt x="177" y="899" on="0"/>
        <pt x="194" y="899" on="1"/>
        <pt x="211" y="899" on="1"/>
        <pt x="222" y="893" on="1"/>
        <pt x="356" y="820" on="0"/>
        <pt x="435" y="692" on="1"/>
        <pt x="496" y="580" on="0"/>
        <pt x="503" y="476" on="1"/>
        <pt x="504" y="467" on="0"/>
        <pt x="504" y="230" on="1"/>
        <pt x="504" y="51" on="0"/>
        <pt x="503" y="-9" on="0"/>
        <pt x="499" y="-9" on="1"/>
        <pt x="498" y="-9" on="1"/>
        <pt x="496" y="-10" on="0"/>
        <pt x="444" y="-10" on="1"/>
        <pt x="402" y="-10" on="0"/>
        <pt x="386" y="-8" on="0"/>
        <pt x="385" y="-4" on="1"/>
        <pt x="384" y="-2" on="0"/>
        <pt x="384" y="240" on="1"/>
        <pt x="383" y="484" on="0"/>
        <pt x="382" y="496" on="1"/>
        <pt x="374" y="561" on="0"/>
        <pt x="358" y="609" on="1"/>
        <pt x="309" y="760" on="0"/>
        <pt x="184" y="846" on="1"/>
        <pt x="177" y="850" on="0"/>
        <pt x="171" y="856" on="1"/>
        <pt x="170" y="857" on="0"/>
        <pt x="170" y="875" on="1"/>
        <pt x="170" y="894" on="0"/>
      </contour>
    </TTGlyph>
    <TTGlyph name="uni23AC" xMin="384" yMin="-660" xMax="718" yMax="1160">
      <contour>
        <pt x="389" y="1159" on="1"/>
        <pt x="391" y="1160" on="0"/>
        <pt x="455" y="1160" on="1"/>
        <pt x="496" y="1160" on="0"/>
        <pt x="498" y="1159" on="1"/>
        <pt x="501" y="1158" on="0"/>
        <pt x="502" y="1155" on="1"/>
        <pt x="504" y="1145" on="0"/>
        <pt x="504" y="925" on="1"/>
        <pt x="504" y="691" on="0"/>
        <pt x="505" y="679" on="1"/>
        <pt x="521" y="416" on="0"/>
        <pt x="705" y="279" on="1"/>
        <pt x="717" y="270" on="0"/>
        <pt x="717" y="268" on="1"/>
        <pt x="718" y="267" on="0"/>
        <pt x="718" y="233" on="0"/>
        <pt x="717" y="232" on="1"/>
        <pt x="717" y="230" on="0"/>
        <pt x="705" y="221" on="1"/>
        <pt x="616" y="154" on="0"/>
        <pt x="512" y="-52" on="0"/>
        <pt x="505" y="-179" on="1"/>
        <pt x="504" y="-191" on="0"/>
        <pt x="504" y="-425" on="1"/>
        <pt x="504" y="-600" on="0"/>
        <pt x="503" y="-659" on="0"/>
        <pt x="499" y="-659" on="1"/>
        <pt x="498" y="-659" on="1"/>
        <pt x="496" y="-660" on="0"/>
        <pt x="392" y="-660" on="0"/>
        <pt x="390" y="-659" on="1"/>
        <pt x="387" y="-658" on="0"/>
        <pt x="386" y="-655" on="1"/>
        <pt x="384" y="-645" on="0"/>
        <pt x="384" y="-424" on="1"/>
        <pt x="384" y="-191" on="0"/>
        <pt x="385" y="-182" on="1"/>
        <pt x="396" y="-25" on="0"/>
        <pt x="492" y="102" on="1"/>
        <pt x="555" y="185" on="0"/>
        <pt x="645" y="241" on="1"/>
        <pt x="659" y="250" on="1"/>
        <pt x="653" y="254" on="0"/>
        <pt x="645" y="259" on="1"/>
        <pt x="515" y="339" on="0"/>
        <pt x="446" y="470" on="1"/>
        <pt x="392" y="570" on="0"/>
        <pt x="385" y="682" on="1"/>
        <pt x="384" y="692" on="0"/>
        <pt x="384" y="873" on="1"/>
        <pt x="384" y="1153" on="0"/>
        <pt x="385" y="1155" on="1"/>
      </contour>
    </TTGlyph>
    <TTGlyph name="uni23AD" xMin="170" yMin="-899" xMax="504" yMax="10">
      <contour>
        <pt x="389" y="9" on="1"/>
        <pt x="391" y="10" on="0"/>
        <pt x="455" y="10" on="1"/>
        <pt x="496" y="10" on="0"/>
        <pt x="498" y="9" on="1"/>
        <pt x="501" y="8" on="0"/>
        <pt x="502" y="5" on="1"/>
        <pt x="504" y="-5" on="0"/>
        <pt x="504" y="-230" on="1"/>
        <pt x="504" y="-467" on="0"/>
        <pt x="503" y="-476" on="1"/>
        <pt x="496" y="-587" on="0"/>
        <pt x="435" y="-691" on="1"/>
        <pt x="357" y="-820" on="0"/>
        <pt x="222" y="-893" on="1"/>
        <pt x="211" y="-899" on="1"/>
        <pt x="195" y="-899" on="1"/>
        <pt x="176" y="-899" on="0"/>
        <pt x="170" y="-893" on="0"/>
        <pt x="170" y="-874" on="1"/>
        <pt x="170" y="-857" on="0"/>
        <pt x="171" y="-856" on="1"/>
        <pt x="177" y="-850" on="0"/>
        <pt x="184" y="-846" on="1"/>
        <pt x="262" y="-793" on="0"/>
        <pt x="363" y="-625" on="0"/>
        <pt x="378" y="-525" on="1"/>
        <pt x="378" y="-524" on="0"/>
        <pt x="379" y="-522" on="1"/>
        <pt x="383" y="-493" on="0"/>
        <pt x="384" y="-351" on="1"/>
        <pt x="384" y="-345" on="0"/>
        <pt x="384" y="-334" on="1"/>
        <pt x="384" y="-276" on="0"/>
        <pt x="384" y="-239" on="1"/>
        <pt x="384" y="2" on="0"/>
        <pt x="386" y="6" on="0"/>
      </contour>
    </TTGlyph>
    <TTGlyph name="uni23B7" xMin="111" yMin="-885" xMax="742" yMax="935">
      <contour>
        <pt x="742" y="-871" on="1"/>
        <pt x="741" y="-872" on="0"/>
        <pt x="735" y="-878" on="0"/>
        <pt x="733" y="-880" on="0"/>
        <pt x="727" y="-883" on="0"/>
        <pt x="720" y="-885" on="0"/>
        <pt x="714" y="-885" on="1"/>
        <pt x="702" y="-885" on="1"/>
        <pt x="674" y="-801" on="1"/>
        <pt x="649" y="-723" on="0"/>
        <pt x="434" y="-74" on="1"/>
        <pt x="222" y="569" on="1"/>
        <pt x="137" y="399" on="1"/>
        <pt x="131" y="404" on="0"/>
        <pt x="124" y="412" on="1"/>
        <pt x="111" y="425" on="1"/>
        <pt x="188" y="580" on="1"/>
        <pt x="265" y="736" on="1"/>
        <pt x="364" y="437" on="0"/>
        <pt x="484" y="75" on="1"/>
        <pt x="702" y="-586" on="1"/>
        <pt x="702" y="168" on="1"/>
        <pt x="703" y="922" on="1"/>
        <pt x="713" y="935" on="0"/>
        <pt x="722" y="935" on="1"/>
        <pt x="734" y="935" on="0"/>
        <pt x="742" y="920" on="1"/>
      </contour>
    </TTGlyph>
    <TTGlyph name="uni27E8" xMin="140" yMin="-1248" xMax="703" yMax="1750">
      <contour>
        <pt x="140" y="242" on="1"/>
        <pt x="140" y="260" on="1"/>
        <pt x="386" y="994" on="1"/>
        <pt x="633" y="1729" on="0"/>
        <pt x="635" y="1732" on="1"/>
        <pt x="643" y="1745" on="0"/>
        <pt x="657" y="1749" on="1"/>
        <pt x="658" y="1749" on="0"/>
        <pt x="666" y="1750" on="0"/>
        <pt x="668" y="1750" on="1"/>
        <pt x="682" y="1749" on="0"/>
        <pt x="702" y="1730" on="0"/>
        <pt x="702" y="1714" on="1"/>
        <pt x="702" y="1705" on="1"/>
        <pt x="214" y="251" on="1"/>
        <pt x="457" y="-478" on="0"/>
        <pt x="703" y="-1204" on="1"/>
        <pt x="702" y="-1213" on="1"/>
        <pt x="702" y="-1229" on="0"/>
        <pt x="683" y="-1248" on="0"/>
        <pt x="667" y="-1248" on="1"/>
        <pt x="647" y="-1248" on="0"/>
        <pt x="635" y="-1231" on="1"/>
        <pt x="633" y="-1228" on="0"/>
        <pt x="386" y="-493" on="1"/>
      </contour>
    </TTGlyph>
    <TTGlyph name="uni27E9" xMin="103" yMin="-1248" xMax="665" yMax="1750">
      <contour>
        <pt x="138" y="-1248" on="1"/>
        <pt x="122" y="-1248" on="0"/>
        <pt x="103" y="-1229" on="0"/>
        <pt x="103" y="-1213" on="1"/>
        <pt x="103" y="-1204" on="1"/>
        <pt x="184" y="-961" on="0"/>
        <pt x="509" y="8" on="0"/>
        <pt x="591" y="251" on="1"/>
        <pt x="103" y="1705" on="1"/>
        <pt x="103" y="1714" on="1"/>
        <pt x="103" y="1730" on="0"/>
        <pt x="122" y="1750" on="0"/>
        <pt x="137" y="1750" on="1"/>
        <pt x="157" y="1750" on="0"/>
        <pt x="170" y="1732" on="1"/>
        <pt x="172" y="1729" on="0"/>
        <pt x="419" y="994" on="1"/>
        <pt x="665" y="260" on="1"/>
        <pt x="665" y="242" on="1"/>
        <pt x="419" y="-493" on="1"/>
        <pt x="172" y="-1228" on="0"/>
        <pt x="170" y="-1231" on="1"/>
        <pt x="158" y="-1248" on="0"/>
      </contour>
    </TTGlyph>
    <TTGlyph name="uniE000" xMin="702" yMin="-14" xMax="742" yMax="625">
      <contour>
        <pt x="735" y="-14" on="0"/>
        <pt x="709" y="-14" on="0"/>
        <pt x="702" y="0" on="1"/>
        <pt x="702" y="306" on="1"/>
        <pt x="703" y="612" on="1"/>
        <pt x="713" y="625" on="0"/>
        <pt x="722" y="625" on="1"/>
        <pt x="734" y="625" on="0"/>
        <pt x="742" y="610" on="1"/>
        <pt x="742" y="0" on="1"/>
      </contour>
    </TTGlyph>
    <TTGlyph name="uniE001" xMin="702" yMin="-14" xMax="1076" yMax="605">
      <contour>
        <pt x="702" y="589" on="1"/>
        <pt x="706" y="601" on="0"/>
        <pt x="718" y="605" on="1"/>
        <pt x="1061" y="605" on="1"/>
        <pt x="1076" y="598" on="0"/>
        <pt x="1076" y="572" on="0"/>
        <pt x="1061" y="565" on="1"/>
        <pt x="742" y="565" on="1"/>
        <pt x="742" y="0" on="1"/>
        <pt x="735" y="-14" on="0"/>
        <pt x="709" y="-14" on="0"/>
        <pt x="702" y="0" on="1"/>
      </contour>
    </TTGlyph>
    <TTGlyph name="uniE150" xMin="-24" yMin="-213" xMax="460" yMax="120">
      <contour>
        <pt x="-18" y="-213" on="1"/>
        <pt x="-24" y="-207" on="1"/>
        <pt x="-24" y="-172" on="1"/>
        <pt x="-16" y="-158" on="1"/>
        <pt x="60" y="-25" on="0"/>
        <pt x="188" y="48" on="1"/>
        <pt x="290" y="110" on="0"/>
        <pt x="415" y="119" on="1"/>
        <pt x="418" y="119" on="0"/>
        <pt x="436" y="120" on="0"/>
        <pt x="440" y="120" on="1"/>
        <pt x="457" y="120" on="0"/>
        <pt x="459" y="114" on="1"/>
        <pt x="460" y="112" on="0"/>
        <pt x="460" y="8" on="0"/>
        <pt x="459" y="6" on="1"/>
        <pt x="457" y="0" on="0"/>
        <pt x="441" y="0" on="1"/>
        <pt x="423" y="0" on="0"/>
        <pt x="414" y="-1" on="1"/>
        <pt x="297" y="-8" on="0"/>
        <pt x="111" y="-91" on="0"/>
        <pt x="54" y="-163" on="1"/>
        <pt x="36" y="-185" on="0"/>
        <pt x="25" y="-205" on="1"/>
        <pt x="21" y="-211" on="0"/>
        <pt x="14" y="-213" on="0"/>
        <pt x="-1" y="-213" on="1"/>
      </contour>
    </TTGlyph>
    <TTGlyph name="uniE151" xMin="-10" yMin="-213" xMax="474" yMax="120">
      <contour>
        <pt x="-10" y="60" on="1"/>
        <pt x="-10" y="90" on="1"/>
        <pt x="-10" y="118" on="0"/>
        <pt x="-5" y="118" on="1"/>
        <pt x="-1" y="120" on="0"/>
        <pt x="10" y="120" on="1"/>
        <pt x="144" y="120" on="0"/>
        <pt x="262" y="48" on="1"/>
        <pt x="390" y="-25" on="0"/>
        <pt x="466" y="-158" on="1"/>
        <pt x="474" y="-172" on="1"/>
        <pt x="474" y="-207" on="1"/>
        <pt x="468" y="-213" on="1"/>
        <pt x="451" y="-213" on="1"/>
        <pt x="436" y="-213" on="0"/>
        <pt x="429" y="-211" on="0"/>
        <pt x="425" y="-205" on="1"/>
        <pt x="394" y="-149" on="0"/>
        <pt x="338" y="-106" on="1"/>
        <pt x="253" y="-37" on="0"/>
        <pt x="129" y="-13" on="1"/>
        <pt x="67" y="0" on="0"/>
        <pt x="9" y="0" on="1"/>
        <pt x="-7" y="0" on="0"/>
        <pt x="-9" y="6" on="1"/>
        <pt x="-10" y="8" on="0"/>
      </contour>
    </TTGlyph>
    <TTGlyph name="uniE152" xMin="-24" yMin="0" xMax="460" yMax="333">
      <contour>
        <pt x="-24" y="327" on="1"/>
        <pt x="-18" y="333" on="1"/>
        <pt x="-1" y="333" on="1"/>
        <pt x="14" y="333" on="0"/>
        <pt x="21" y="331" on="0"/>
        <pt x="25" y="325" on="1"/>
        <pt x="38" y="302" on="0"/>
        <pt x="54" y="284" on="1"/>
        <pt x="79" y="251" on="0"/>
        <pt x="112" y="226" on="1"/>
        <pt x="197" y="157" on="0"/>
        <pt x="321" y="133" on="1"/>
        <pt x="383" y="120" on="0"/>
        <pt x="441" y="120" on="1"/>
        <pt x="457" y="120" on="0"/>
        <pt x="459" y="114" on="1"/>
        <pt x="460" y="112" on="0"/>
        <pt x="460" y="8" on="0"/>
        <pt x="459" y="6" on="1"/>
        <pt x="457" y="0" on="0"/>
        <pt x="442" y="0" on="1"/>
        <pt x="355" y="0" on="0"/>
        <pt x="260" y="36" on="1"/>
        <pt x="212" y="57" on="0"/>
        <pt x="188" y="72" on="1"/>
        <pt x="60" y="145" on="0"/>
        <pt x="-16" y="278" on="1"/>
        <pt x="-24" y="292" on="1"/>
      </contour>
    </TTGlyph>
    <TTGlyph name="uniE153" xMin="-10" yMin="0" xMax="474" yMax="333">
      <contour>
        <pt x="468" y="333" on="1"/>
        <pt x="474" y="327" on="1"/>
        <pt x="474" y="292" on="1"/>
        <pt x="466" y="278" on="1"/>
        <pt x="390" y="145" on="0"/>
        <pt x="262" y="72" on="1"/>
        <pt x="238" y="57" on="0"/>
        <pt x="190" y="36" on="1"/>
        <pt x="95" y="0" on="0"/>
        <pt x="8" y="0" on="1"/>
        <pt x="-7" y="0" on="0"/>
        <pt x="-9" y="6" on="1"/>
        <pt x="-10" y="8" on="0"/>
        <pt x="-10" y="112" on="0"/>
        <pt x="-9" y="114" on="1"/>
        <pt x="-7" y="120" on="0"/>
        <pt x="9" y="120" on="1"/>
        <pt x="27" y="120" on="0"/>
        <pt x="37" y="121" on="1"/>
        <pt x="221" y="132" on="0"/>
        <pt x="338" y="226" on="1"/>
        <pt x="371" y="251" on="0"/>
        <pt x="396" y="284" on="1"/>
        <pt x="412" y="302" on="0"/>
        <pt x="425" y="325" on="1"/>
        <pt x="429" y="331" on="0"/>
        <pt x="431" y="331" on="1"/>
        <pt x="433" y="333" on="0"/>
        <pt x="451" y="333" on="1"/>
      </contour>
    </TTGlyph>
    <TTGlyph name="uniE154" xMin="-10" yMin="0" xMax="410" yMax="120">
      <contour>
        <pt x="-10" y="0" on="1"/>
        <pt x="-10" y="120" on="1"/>
        <pt x="410" y="120" on="1"/>
        <pt x="410" y="0" on="1"/>
      </contour>
    </TTGlyph>
    <TTGlyph name="uniEFFD" xMin="0" yMin="0" xMax="300" yMax="100">
      <contour>
        <pt x="0" y="0" on="1"/>
        <pt x="0" y="100" on="1"/>
        <pt x="100" y="100" on="1"/>
        <pt x="100" y="0" on="1"/>
      </contour>
      <contour>
        <pt x="200" y="0" on="1"/>
        <pt x="200" y="100" on="1"/>
        <pt x="300" y="100" on="1"/>
        <pt x="300" y="0" on="1"/>
      </contour>
    </TTGlyph>
    <TTGlyph name="uniEFFE" xMin="0" yMin="0" xMax="300" yMax="100">
      <contour>
        <pt x="0" y="0" on="1"/>
        <pt x="0" y="100" on="1"/>
        <pt x="100" y="100" on="1"/>
        <pt x="100" y="0" on="1"/>
      </contour>
      <contour>
        <pt x="200" y="0" on="1"/>
        <pt x="200" y="100" on="1"/>
        <pt x="300" y="100" on="1"/>
        <pt x="300" y="0" on="1"/>
      </contour>
    </TTGlyph>
    <TTGlyph name="uniEFFF" xMin="0" yMin="0" xMax="100" yMax="100">
      <contour>
        <pt x="0" y="0" on="1"/>
        <pt x="0" y="100" on="1"/>
        <pt x="100" y="100" on="1"/>
        <pt x="100" y="0" on="1"/>
      </contour>
    </TTGlyph>
</ttFont>
